<?xml version="1.0" encoding="UTF-8" standalone="no"?>
<svg
   xmlns:dc="http://purl.org/dc/elements/1.1/"
   xmlns:cc="http://creativecommons.org/ns#"
   xmlns:rdf="http://www.w3.org/1999/02/22-rdf-syntax-ns#"
   xmlns:svg="http://www.w3.org/2000/svg"
   xmlns="http://www.w3.org/2000/svg"
   xmlns:xlink="http://www.w3.org/1999/xlink"
   width="420.84091mm"
   height="402.60037mm"
   viewBox="0 0 420.8409 402.60037"
   version="1.1"
   id="svg8">
  <defs
     id="defs2">
    <linearGradient
       id="linearGradient1977">
      <stop
         style="stop-color:#ee81a4;stop-opacity:1"
         offset="0"
         id="stop1973" />
      <stop
         style="stop-color:#de346b;stop-opacity:1"
         offset="1"
         id="stop1975" />
    </linearGradient>
    <linearGradient
       id="linearGradient1969">
      <stop
         style="stop-color:#a879da;stop-opacity:1"
         offset="0"
         id="stop1965" />
      <stop
         style="stop-color:#614293;stop-opacity:1"
         offset="1"
         id="stop1967" />
    </linearGradient>
    <linearGradient
       xlink:href="#linearGradient1969"
       id="linearGradient1971"
       x1="658.52417"
       y1="130.68253"
       x2="682.93488"
       y2="157.9913"
       gradientUnits="userSpaceOnUse" />
    <linearGradient
       xlink:href="#linearGradient1977"
       id="linearGradient1979"
       x1="670.82721"
       y1="125.8912"
       x2="691.61591"
       y2="149.70369"
       gradientUnits="userSpaceOnUse" />
    <linearGradient
       id="linearGradient1415">
      <stop
         style="stop-color:#214da3;stop-opacity:1"
         offset="0"
         id="stop1411" />
      <stop
         style="stop-color:#8ad4d0;stop-opacity:1"
         offset="1"
         id="stop1413" />
    </linearGradient>
    <linearGradient
       id="linearGradient1399">
      <stop
         style="stop-color:#44a9c0;stop-opacity:1"
         offset="0"
         id="stop1395" />
      <stop
         style="stop-color:#0a0066;stop-opacity:1"
         offset="1"
         id="stop1397" />
    </linearGradient>
    <linearGradient
       id="linearGradient1383">
      <stop
         style="stop-color:#ffffff;stop-opacity:1"
         offset="0"
         id="stop1379" />
      <stop
         style="stop-color:#46adc1;stop-opacity:1"
         offset="1"
         id="stop1381" />
    </linearGradient>
    <linearGradient
       id="linearGradient1373">
      <stop
         style="stop-color:#ffffff;stop-opacity:1"
         offset="0"
         id="stop1369" />
      <stop
         style="stop-color:#ffffff;stop-opacity:1"
         offset="0.28675613"
         id="stop1377" />
      <stop
         style="stop-color:#6bc6cf;stop-opacity:1"
         offset="1"
         id="stop1371" />
    </linearGradient>
    <linearGradient
       id="linearGradient1256">
      <stop
         style="stop-color:#ffffff;stop-opacity:1"
         offset="0"
         id="stop1252" />
      <stop
         style="stop-color:#ffffff;stop-opacity:1"
         offset="0.87190092"
         id="stop1260" />
      <stop
         style="stop-color:#ffffff;stop-opacity:0"
         offset="1"
         id="stop1254" />
    </linearGradient>
    <linearGradient
       id="linearGradient1250">
      <stop
         style="stop-color:#1f446e;stop-opacity:0"
         offset="0"
         id="stop1236" />
      <stop
         style="stop-color:#0e4a6f;stop-opacity:1"
         offset="0.19173355"
         id="stop1238" />
      <stop
         style="stop-color:#77abd2;stop-opacity:1"
         offset="0.3553932"
         id="stop1240" />
      <stop
         style="stop-color:#ffffff;stop-opacity:1"
         offset="0.50465053"
         id="stop1242" />
      <stop
         style="stop-color:#66a1c9;stop-opacity:1"
         offset="0.66500628"
         id="stop1244" />
      <stop
         style="stop-color:#10496f;stop-opacity:1"
         offset="0.84411353"
         id="stop1246" />
      <stop
         style="stop-color:#6c5353;stop-opacity:0;"
         offset="1"
         id="stop1248" />
    </linearGradient>
    <linearGradient
       id="linearGradient1940">
      <stop
         style="stop-color:#354769;stop-opacity:1"
         offset="0"
         id="stop1936" />
      <stop
         style="stop-color:#194393;stop-opacity:1"
         offset="0.19173355"
         id="stop1946" />
      <stop
         style="stop-color:#5f81d2;stop-opacity:1"
         offset="0.3553932"
         id="stop1948" />
      <stop
         style="stop-color:#ffffff;stop-opacity:1"
         offset="0.52105194"
         id="stop1944" />
      <stop
         style="stop-color:#8aa9ea;stop-opacity:1"
         offset="0.67208856"
         id="stop1950" />
      <stop
         style="stop-color:#143e7e;stop-opacity:1"
         offset="0.84411353"
         id="stop1952" />
      <stop
         style="stop-color:#1e345c;stop-opacity:1"
         offset="1"
         id="stop1938" />
    </linearGradient>
    <linearGradient
       id="linearGradient1073">
      <stop
         style="stop-color:#ffffff;stop-opacity:1"
         offset="0"
         id="stop1057" />
      <stop
         style="stop-color:#3280a7;stop-opacity:1"
         offset="0.15535364"
         id="stop1059" />
      <stop
         style="stop-color:#1b3d68;stop-opacity:1"
         offset="0.25768271"
         id="stop1061" />
      <stop
         style="stop-color:#1a4773;stop-opacity:1"
         offset="0.51831788"
         id="stop1063" />
      <stop
         style="stop-color:#387aa2;stop-opacity:1"
         offset="0.635297"
         id="stop1065" />
      <stop
         style="stop-color:#ffffff;stop-opacity:1"
         offset="0.74682128"
         id="stop1067" />
      <stop
         style="stop-color:#3784a9;stop-opacity:1"
         offset="0.86146075"
         id="stop1069" />
      <stop
         style="stop-color:#1b416c;stop-opacity:1"
         offset="0.93111163"
         id="stop1075" />
      <stop
         style="stop-color:#0f4767;stop-opacity:1"
         offset="1"
         id="stop1071" />
    </linearGradient>
    <linearGradient
       id="linearGradient1033">
      <stop
         style="stop-color:#ffffff;stop-opacity:1"
         offset="0"
         id="stop1017" />
      <stop
         style="stop-color:#3280a7;stop-opacity:1"
         offset="0.41816857"
         id="stop1019" />
      <stop
         style="stop-color:#1b3d68;stop-opacity:1"
         offset="0.46536002"
         id="stop1021" />
      <stop
         style="stop-color:#1a4773;stop-opacity:1"
         offset="0.51831788"
         id="stop1023" />
      <stop
         style="stop-color:#387aa2;stop-opacity:1"
         offset="0.58978373"
         id="stop1025" />
      <stop
         style="stop-color:#ffffff;stop-opacity:1"
         offset="0.71297747"
         id="stop1027" />
      <stop
         style="stop-color:#3784a9;stop-opacity:1"
         offset="0.82163239"
         id="stop1029" />
      <stop
         style="stop-color:#1c3b66;stop-opacity:1"
         offset="0.94214451"
         id="stop1035" />
      <stop
         style="stop-color:#0f4767;stop-opacity:1"
         offset="1"
         id="stop1031" />
    </linearGradient>
    <linearGradient
       id="linearGradient949">
      <stop
         style="stop-color:#ffffff;stop-opacity:1"
         offset="0"
         id="stop945" />
      <stop
         style="stop-color:#3280a7;stop-opacity:1"
         offset="0.15535364"
         id="stop963" />
      <stop
         style="stop-color:#1b3d68;stop-opacity:1"
         offset="0.25768271"
         id="stop957" />
      <stop
         style="stop-color:#1a4773;stop-opacity:1"
         offset="0.51831788"
         id="stop955" />
      <stop
         style="stop-color:#387aa2;stop-opacity:1"
         offset="0.60249537"
         id="stop959" />
      <stop
         style="stop-color:#ffffff;stop-opacity:1"
         offset="0.74682128"
         id="stop953" />
      <stop
         style="stop-color:#3784a9;stop-opacity:1"
         offset="0.89396554"
         id="stop961" />
      <stop
         style="stop-color:#0f4767;stop-opacity:1"
         offset="1"
         id="stop947" />
    </linearGradient>
    <linearGradient
       xlink:href="#linearGradient949"
       id="linearGradient951"
       x1="49.703869"
       y1="175.9841"
       x2="49.979401"
       y2="135.63928"
       gradientUnits="userSpaceOnUse"
       gradientTransform="matrix(1.9896495,0,0,1.9385834,-116.62209,-123.95223)" />
    <linearGradient
       xlink:href="#linearGradient1033"
       id="linearGradient1013"
       x1="83.240799"
       y1="123.76131"
       x2="83.430527"
       y2="163.14253"
       gradientUnits="userSpaceOnUse" />
    <linearGradient
       xlink:href="#linearGradient1073"
       id="linearGradient1015"
       gradientUnits="userSpaceOnUse"
       x1="84.11026"
       y1="111.45076"
       x2="83.240799"
       y2="164.71779" />
    <linearGradient
       xlink:href="#linearGradient1940"
       id="linearGradient1942"
       x1="98.488823"
       y1="123.61216"
       x2="41.159508"
       y2="182.01054"
       gradientUnits="userSpaceOnUse"
       gradientTransform="matrix(1.9896495,0,0,1.9385834,-116.62209,-123.95223)" />
    <radialGradient
       xlink:href="#linearGradient1256"
       id="radialGradient1258"
       cx="22.45064"
       cy="172.38884"
       fx="22.45064"
       fy="172.38884"
       r="64.679222"
       gradientTransform="matrix(0.99173549,0,0,0.95454553,0.18554451,7.8358434)"
       gradientUnits="userSpaceOnUse" />
    <radialGradient
       xlink:href="#linearGradient1373"
       id="radialGradient1375"
       cx="151.19241"
       cy="94.956696"
       fx="151.19241"
       fy="94.956696"
       r="62.177078"
       gradientTransform="matrix(-2.9832432,0.04759851,-0.03804777,-2.3856679,1104.9373,327.31519)"
       gradientUnits="userSpaceOnUse" />
    <linearGradient
       xlink:href="#linearGradient1383"
       id="linearGradient1385"
       x1="16.036171"
       y1="109.04597"
       x2="157.42175"
       y2="105.57146"
       gradientUnits="userSpaceOnUse"
       gradientTransform="matrix(2.3684597,0,0,2.3700071,392.64274,-126.39278)" />
    <linearGradient
       xlink:href="#linearGradient1399"
       id="linearGradient1401"
       x1="12.473214"
       y1="104.32143"
       x2="160.2619"
       y2="104.6994"
       gradientUnits="userSpaceOnUse"
       gradientTransform="matrix(2.3684597,0,0,2.3700071,392.64274,-126.39278)" />
    <linearGradient
       xlink:href="#linearGradient1383"
       id="linearGradient1409"
       x1="9.3544235"
       y1="104.90329"
       x2="162.49986"
       y2="104.90329"
       gradientUnits="userSpaceOnUse"
       gradientTransform="matrix(2.3684597,0,0,2.3700071,392.64274,-126.39278)" />
    <linearGradient
       xlink:href="#linearGradient1415"
       id="linearGradient1417"
       x1="9.8273811"
       y1="184.83035"
       x2="164.41965"
       y2="26.080357"
       gradientUnits="userSpaceOnUse"
       gradientTransform="matrix(2.3684597,0,0,2.3700071,392.64274,-126.39278)" />
  </defs>
  <metadata
     id="metadata5">
    <rdf:RDF>
      <cc:Work
         rdf:about="">
        <dc:format>image/svg+xml</dc:format>
        <dc:type
           rdf:resource="http://purl.org/dc/dcmitype/StillImage" />
        <dc:title></dc:title>
      </cc:Work>
    </rdf:RDF>
  </metadata>
  <g
     id="layer1"
     transform="translate(-408.4682,65.900131)">
    <ellipse
       style="fill:url(#linearGradient1417);fill-opacity:1;stroke:none;stroke-width:47.5197"
       id="path1307-6"
       cx="596.15778"
       cy="122.22876"
       rx="187.68958"
       ry="188.12889" />
    <ellipse
       style="fill:#0072c5;fill-opacity:1;stroke:none;stroke-width:3.37577;stroke-linecap:round;stroke-linejoin:round;stroke-miterlimit:4;stroke-dasharray:none;stroke-opacity:1;paint-order:normal"
       id="path4166"
       cx="775.98547"
       cy="283.18073"
       rx="53.323631"
       ry="53.519501" />
    <ellipse
       style="fill:url(#linearGradient1409);fill-opacity:1;stroke:none;stroke-width:45.9984"
       id="path1307-8"
       cx="596.15771"
       cy="122.22876"
       rx="181.35941"
       ry="182.42802" />
    <ellipse
       style="fill:url(#linearGradient1401);fill-opacity:1;stroke:none;stroke-width:44.3172"
       id="path1307"
       cx="596.47424"
       cy="122.22876"
       rx="175.34575"
       ry="175.14357" />
    <ellipse
       style="fill:url(#radialGradient1375);fill-opacity:1;stroke:none;stroke-width:33.2602"
       id="path1275"
       cx="597.20081"
       cy="115.92281"
       rx="147.2639"
       ry="146.46431" />
    <path
       id="path1275-0"
       style="fill:url(#linearGradient1385);fill-opacity:1;stroke:none;stroke-width:37.9757"
       d="m 596.47933,-45.949037 c -92.3487,0.151681 -167.1321,75.306755 -167.13235,167.962957 -2.9e-4,92.76409 74.95041,167.96437 167.40676,167.96418 92.45587,-4.7e-4 167.40583,-75.20056 167.40554,-167.96418 C 764.1589,29.250774 689.20914,-45.948568 596.75374,-45.949037 Z m -0.26579,30.019041 c 75.55509,9.2e-5 136.80466,61.199561 136.80504,136.693126 2.9e-4,75.49406 -61.24948,136.69426 -136.80504,136.69435 -75.55558,-9e-5 -136.80535,-61.20029 -136.80505,-136.69435 3.8e-4,-75.493563 61.24994,-136.693034 136.80505,-136.693126 z" />
    <path
       id="rect1116"
       style="fill:#0c007b;fill-opacity:1;stroke-width:1.17997"
       d="m 481.67944,93.709278 c -0.62386,0 -1.12601,0.506829 -1.12601,1.136497 v 42.168785 c 0,0.62967 0.50215,1.1365 1.12601,1.1365 h 62.33637 c 1.92511,-0.2141 4.41851,-0.46427 5.79555,-0.83416 1.69164,-0.45472 3.03792,-1.38172 4.39184,-2.12441 3.60621,-2.02046 6.62331,-5.09287 8.60732,-8.74256 1.98402,-3.64969 2.93098,-7.8637 2.71849,-12.02111 -0.27292,-5.3394 -2.4942,-10.5715 -6.20442,-14.38753 -3.71021,-3.816027 -8.88817,-6.163321 -14.18276,-6.332012 -21.95419,-0.0019 -44.58919,-2.2e-5 -63.46239,0 z m 20.8456,5.572141 c 7.67837,-3.77e-4 16.91486,0.0019 25.82123,0 8.59314,-1.85e-4 15.55939,7.467241 15.55949,16.678911 -1.1e-4,9.21167 -6.96635,16.67909 -15.55949,16.67891 -0.26915,-0.007 -0.81564,0.0422 -1.07719,0.0478 -0.65693,0.0141 -1.01739,0.008 -1.69742,0.0177 -1.60919,0.0237 -3.29365,0.006 -4.8991,0.0125 -6.05478,0.024 -12.10245,0.0299 -18.14752,-0.078 z" />
    <rect
       style="fill:#0c007b;fill-opacity:1;stroke-width:1.16141"
       id="rect1150"
       width="22.49715"
       height="44.441784"
       x="570.11047"
       y="93.709282"
       ry="0.80705416" />
    <path
       id="rect1152"
       style="fill:#0c007b;fill-opacity:1;stroke-width:1.27095"
       d="m 655.83296,93.694567 c -7.34534,0 -21.82532,-1.32e-4 -29.69415,0.06326 -7.86883,0.06339 -9.15956,0.19377 -11.24709,0.651739 -2.08754,0.457965 -5.04011,1.2502 -7.96159,3.421991 -2.92148,2.171793 -5.81166,5.722703 -7.49223,9.876113 -1.68056,4.15342 -1.67766,10.68806 -0.0769,15.64811 1.60077,4.96006 4.80437,8.28849 8.24619,11.07831 3.44182,2.78983 6.65065,3.23393 8.25457,3.45583 1.60392,0.2219 1.60369,0.22185 1.80455,0.21774 0.0326,-7.5e-4 0.81354,-0.0264 0.87458,-0.0279 0.0938,0.0204 0.19081,0.0323 0.2908,0.0323 h 50.57984 13.11067 c 0.75699,0 1.36653,-0.61521 1.36653,-1.37924 V 114.4288 c 0,-0.76403 -0.60954,-1.37924 -1.36653,-1.37924 h -19.50677 c -0.75699,0 -1.36454,0.61521 -1.36653,1.37924 l -0.0471,18.11165 c 0,0 -16.34661,0.20234 -24.59557,-0.12832 -2.63986,-0.10582 -4.04379,-0.61201 -4.33213,-0.69681 -3.7538,-1.10401 -5.76358,-2.3933 -7.38509,-3.78318 -1.62151,-1.38987 -2.85399,-2.88098 -3.75923,-4.90422 -0.90525,-2.02323 -1.48278,-4.57887 -1.59392,-6.68068 -0.11115,-2.10181 0.24398,-3.74915 0.60491,-5.09989 0.36094,-1.35074 0.72713,-2.40429 1.51011,-3.69343 0.78298,-1.28914 1.98231,-2.81341 3.3817,-4.11934 1.3994,-1.30592 2.9986,-2.39338 4.53689,-3.02109 1.53827,-0.62771 3.01597,-0.795727 7.90255,-0.879778 4.88658,-0.08405 13.18194,-0.08459 17.6993,-0.08459 4.51736,0 5.25592,3.77e-4 5.74452,-0.0331 0.48861,-0.03367 0.78626,-0.160872 1.01657,-0.334556 0.2303,-0.173689 0.47578,-0.465253 0.80339,-0.969633 0.32761,-0.504381 0.67877,-1.16163 0.94809,-1.736028 0.26932,-0.574399 0.42319,-1.000445 0.39768,-1.370415 -0.0255,-0.369974 -0.11022,-0.564403 -0.27114,-0.775476 -0.16092,-0.211075 -0.44555,-0.438237 -0.6338,-0.48681 -0.18824,-0.04857 -0.39832,-0.04855 -7.74367,-0.04855 z" />
    <rect
       style="fill:#0c007b;fill-opacity:1;stroke-width:1.16141"
       id="rect1150-5"
       width="22.49715"
       height="44.441784"
       x="688.66541"
       y="93.709282"
       ry="0.80705416" />
    <path
       id="rect995"
       style="fill:#0c007b;fill-opacity:1;stroke-width:29.6083"
       d="m 642.59046,152.31529 c -0.54607,0 -1.61659,-4e-4 -2.5213,0.16282 -0.9047,0.16329 -1.63165,0.4904 -2.17739,0.99448 -0.54574,0.50408 -1.09113,1.52477 -1.27288,1.86527 v 0 0 c -0.019,-0.5129 0.0189,-2.5371 4e-4,-3.05065 v -0.0284 l -8.28277,9e-5 v 28.84495 l 7.97399,-0.0119 V 163.1202 h -0.007 c 0.007,-0.0936 0.007,-0.17775 0.007,-0.34538 0,-0.34495 6.2e-4,-1.03607 0.1639,-1.65218 0.16319,-0.61611 0.48892,-1.15666 0.92282,-1.48803 0.43395,-0.33145 0.97515,-0.45258 1.94974,-0.51318 0.97458,-0.0607 2.3818,-0.0611 3.08554,-0.0611 0.17219,0 0.30077,-6.4e-4 0.39901,-0.0166 h 7.28316 l -0.005,-6.72871 h -7.51986 z" />
    <path
       id="rect1006"
       style="fill:#0c007b;fill-opacity:1;stroke-width:29.6083"
       d="m 654.50303,143.5119 c 0,0 10e-4,31.64125 0.1639,32.99924 0.16508,1.37911 0.49522,2.22293 1.12848,2.88916 0.63325,0.66623 1.56908,1.15552 2.50538,1.43907 0.93632,0.28355 1.873,0.36214 3.29729,0.40172 1.42428,0.0396 3.33662,0.0391 4.3719,0.0391 0.41426,0 4.31803,-6.2e-4 4.31803,-6.2e-4 v -7.12481 h -4.70113 c 0,0 -0.98876,0.0332 -1.4112,-0.0391 -0.69233,-0.1185 -1.08703,-0.35671 -1.29981,-0.74833 -0.21269,-0.3916 -0.26295,-1.32393 -0.28273,-3.02631 -0.007,-0.61912 -0.0189,-10.676 -0.0189,-10.676 h 7.59574 v -7.20513 h -7.59574 v -8.94792 z" />
    <path
       id="rect1017-4"
       style="fill:#0c007b;fill-opacity:1;stroke-width:56.4882"
       d="m 598.6928,152.3202 c -3.22693,0 -5.82471,2.6007 -5.82471,5.82972 v 16.97361 c 0,3.22904 2.59778,5.82851 5.82471,5.82851 h 19.34919 c 3.22693,0 5.82471,-2.59947 5.82471,-5.82851 v -16.97361 c 0,-3.22902 -2.59778,-5.82972 -5.82471,-5.82972 z m 4.97407,6.93689 h 9.39248 c 1.69111,0 3.05249,1.36228 3.05249,3.05449 v 8.89646 c 0,1.69223 -1.36138,3.05449 -3.05249,3.05449 h -9.39248 c -1.69111,0 -3.05249,-1.36226 -3.05249,-3.05449 v -8.89646 c 0,-1.69221 1.36138,-3.05449 3.05249,-3.05449 z" />
    <path
       id="rect1017-4-4"
       style="fill:#0c007b;fill-opacity:1;stroke-width:56.4882"
       d="m 558.44246,152.3006 v 38.40279 h 8.22851 v -9.75135 H 581.696 c 3.22694,0 5.82471,-2.59947 5.82471,-5.82851 v -16.97361 c 0,-3.22904 -2.59777,-5.82972 -5.82471,-5.82972 z m 18.2709,6.95649 c 1.69111,0 3.0525,1.36228 3.0525,3.05449 v 8.89646 c 0,1.69221 -1.36139,3.05449 -3.0525,3.05449 0,0 -9.81687,0.0453 -10.02648,0 v -15.00544 c 0.20961,-0.0453 10.02648,0 10.02648,0 z" />
    <path
       id="path1152"
       style="fill:#0c007b;fill-opacity:1;stroke:none;stroke-width:0.626859px;stroke-linecap:butt;stroke-linejoin:miter;stroke-opacity:1"
       d="m 553.67033,152.23078 -25.60073,0.21306 c -0.82804,0.0858 -1.84998,0.26419 -2.57058,0.82792 -0.8769,0.68597 -1.72517,1.93627 -2.1774,3.70481 -0.45223,1.76855 -0.50856,4.05395 -0.4712,5.77097 0.0374,1.717 0.16792,2.86513 0.76496,3.95222 0.59709,1.08706 1.66053,2.11393 2.85421,2.77156 0.89409,0.49258 1.86158,0.77843 2.81382,0.93203 l 0.91796,0.10902 c 0.0102,6.4e-4 0.0206,0.002 0.0306,0.005 0.5485,0.0431 13.87576,-0.005 13.87576,-0.005 0.62893,0.0969 1.08491,0.25172 1.40141,0.51806 0.4432,0.37297 0.62934,0.96094 0.56423,1.52114 -0.0651,0.56018 -0.38195,1.09251 -0.90449,1.41457 -0.23949,0.14765 -0.53233,0.24669 -0.90326,0.32087 h -21.01985 v 7.16714 l 25.87765,-0.21306 c 0.82803,-0.0858 1.57304,-0.26419 2.29365,-0.82792 0.8769,-0.686 1.72515,-1.93629 2.17738,-3.70484 0.45224,-1.76855 0.50856,-4.05392 0.47122,-5.77094 -0.0374,-1.717 -0.16785,-2.86513 -0.76496,-3.95223 -0.5971,-1.08707 -1.66053,-2.11395 -2.85422,-2.77158 -0.72354,-0.39861 -2.11915,-0.84749 -3.30458,-1.07312 -0.77027,-0.14646 -1.59728,-0.15049 -1.59728,-0.15049 h -13.48777 c -0.25514,-0.0879 -0.47902,-0.19173 -0.64991,-0.33559 -0.44319,-0.37297 -0.62934,-0.96095 -0.56423,-1.52112 0.0651,-0.56018 0.38195,-1.0925 0.90449,-1.41456 0.23949,-0.14766 0.53233,-0.24672 0.90326,-0.32088 h 21.01987 z" />
    <path
       style="opacity:0.88;fill:#335ca8;fill-opacity:1;stroke:none;stroke-width:25.8815"
       d="m 611.89242,-29.352117 c -14.896,24.3189296 4.77395,65.877464 44.55737,94.140484 31.58899,22.440947 67.99841,30.722649 90.68382,20.626988 -8.08463,-27.001028 -24.19694,-52.723115 -47.88525,-74.227516 -0.13033,-0.118722 -0.26092,-0.238115 -0.39166,-0.356398 -25.36585,-22.877371 -55.88349,-36.217514 -86.96428,-40.183558 z"
       id="path1265" />
    <path
       style="opacity:0.88;fill:#337dae;fill-opacity:1;stroke:none;stroke-width:25.8815"
       d="m 534.09908,-19.162321 c -19.41237,8.053218 -37.29716,20.3342679 -52.23389,36.809412 -16.6405,18.354312 -27.7531,39.843275 -33.47097,62.509251 18.87752,11.915803 50.03521,2.237986 72.47289,-22.510627 23.69408,-26.134801 29.52995,-60.0104989 13.23197,-76.808036 z"
       id="path1269" />
    <path
       style="opacity:0.74;fill:#3578ae;fill-opacity:1;stroke:none;stroke-width:25.8815"
       d="m 690.43603,184.69116 c -18.50502,0.022 -39.35878,3.45626 -59.81495,9.85055 -48.77726,15.24709 -85.69856,44.09956 -87.83451,68.63904 59.22168,22.51104 129.52951,5.20937 173.27622,-43.04331 7.30978,-8.06276 13.50637,-16.59446 18.63074,-25.45856 -10.04716,-6.52355 -25.49592,-10.00991 -44.2575,-9.98772 z"
       id="path1271" />
    <text
       xml:space="preserve"
       style="font-style:normal;font-variant:normal;font-weight:bold;font-stretch:normal;font-size:33.4325px;line-height:1.25;font-family:'Nokia Eurostile';-inkscape-font-specification:'Nokia Eurostile Bold';letter-spacing:0px;word-spacing:0px;stroke-width:0.626859"
       x="558.88879"
       y="162.89941"
       id="text972"
       transform="scale(0.99967349,1.0003266)"><tspan
         id="tspan970"
         x="558.88879"
         y="162.89941"
         style="font-style:normal;font-variant:normal;font-weight:bold;font-stretch:normal;font-family:'Nokia Eurostile';-inkscape-font-specification:'Nokia Eurostile Bold';stroke-width:0.626859" /></text>
    <text
       xml:space="preserve"
       style="font-style:normal;font-variant:normal;font-weight:normal;font-stretch:normal;font-size:33.4325px;line-height:1.25;font-family:'Nokia Eurostile';-inkscape-font-specification:'Nokia Eurostile';letter-spacing:0px;word-spacing:0px;stroke-width:0.626859"
       x="553.96344"
       y="180.13808"
       id="text976"
       transform="scale(0.99967349,1.0003266)"><tspan
         id="tspan974"
         x="553.96344"
         y="180.13808"
         style="font-style:normal;font-variant:normal;font-weight:normal;font-stretch:normal;font-family:'Nokia Eurostile';-inkscape-font-specification:'Nokia Eurostile';stroke-width:0.626859" /></text>
    <path
       id="path1472"
       style="fill:#ffffff;fill-opacity:1;stroke:none;stroke-width:0.999999px;stroke-linecap:butt;stroke-linejoin:miter;stroke-opacity:1"
       d="m 2408.2734,586.9082 c -6.729,0.0631 -13.5162,0.39063 -19.7246,1.04297 -12.4167,1.30469 -22.5188,3.91446 -32.4101,7.95508 -9.8914,4.04066 -19.5721,9.51112 -28.8321,16.03516 -9.2599,6.52403 -26.9375,21.67578 -26.9375,21.67578 l 45.836,43.8164 c 0,0 9.4944,-10.08072 16.5332,-14.63671 7.0388,-4.556 16.3401,-8.5968 25.3476,-10.89063 9.0076,-2.29395 17.7188,-2.84098 26.7051,-2.52539 8.9864,0.31578 18.2474,1.49368 26.0762,4.48242 7.8287,2.98874 14.2258,7.78745 18.0976,13.23828 3.8719,5.45084 5.2156,11.55269 5.2383,17.5293 0.021,5.97657 -1.2836,11.82712 -4.2929,16.625 -3.0093,4.79792 -7.7232,8.54417 -12.5,10.75391 -4.777,2.20973 -9.5813,2.87739 -13.0293,3.21679 -3.4481,0.3394 -5.47,0.33985 -7.4903,0.33985 h -34.3437 v 63.36132 c 0,0 32.4703,10e-4 42.8496,0.22461 10.3792,0.22337 14.902,0.66849 19.039,2.05274 4.1371,1.38425 7.888,3.70676 11.1915,6.40039 3.3035,2.69367 6.1595,5.75842 8.0937,9.52344 1.9342,3.76497 2.947,8.22946 3.1973,13.33398 0.2502,5.10452 -0.2625,10.84878 -2.2383,16.43359 -1.9758,5.58482 -5.4159,11.01035 -11.4102,15.69727 -5.9943,4.68692 -14.5426,8.63533 -22.1797,10.69922 -7.6371,2.06385 -14.3635,2.24353 -22.2207,2.1543 -7.8572,-0.0892 -16.8451,-0.44638 -26.7558,-2.26172 -9.9107,-1.81535 -20.743,-5.09028 -31.1367,-11.24414 -10.3938,-6.15383 -30.3028,-24.22266 -30.3028,-24.22266 l -48.2343,38.63867 c 4.5456,5.38749 9.0918,10.77538 14.9003,16.28906 5.8086,5.51369 12.8792,11.15457 20.2872,16.1211 7.4079,4.96649 15.1526,9.25866 23.4023,13.13086 8.2497,3.87224 17.0052,7.32398 26.9805,10.01758 9.9753,2.69363 21.1702,4.62963 34.9336,5.21875 13.7634,0.58911 30.0942,-0.16896 44.2363,-2.27344 14.1421,-2.10459 26.0962,-5.55573 38.5547,-11.40625 12.4585,-5.85056 25.4206,-14.09974 34.8906,-25.50586 9.47,-11.40612 15.4468,-25.96916 18.9824,-39.73242 3.5357,-13.76327 4.6299,-26.72634 1.9785,-39.0586 -2.6513,-12.33229 -9.0485,-24.0338 -18.1699,-33.60742 -9.1214,-9.57362 -20.8454,-16.94331 -30.2305,-21.20117 -0.7795,-0.35366 -1.5243,-0.6535 -2.2753,-0.96484 2.5872,-1.28603 5.0373,-2.60119 7.2812,-3.95313 13.5527,-8.16525 20.1185,-17.59361 24.5801,-28.70508 4.4616,-11.11147 6.8186,-23.90559 6.1875,-36.86914 -0.6311,-12.96355 -4.251,-26.09601 -10.2695,-37.25 -6.0186,-11.15395 -14.4367,-20.32961 -24.959,-27.52734 -10.5224,-7.1977 -23.1494,-12.4167 -34.0508,-15.82617 -10.9014,-3.40944 -20.0756,-5.00877 -32.0293,-5.8086 -5.9768,-0.39991 -12.6479,-0.60022 -19.377,-0.53711 z"
       transform="matrix(0.26458333,0,0,0.26458333,137.75975,83.23702)" />
  </g>
</svg>
