<?xml version="1.0" encoding="UTF-8" standalone="no"?>
<!-- Created with Inkscape (http://www.inkscape.org/) -->

<svg version="1.1" id="svg35214" xml:space="preserve" width="1040" height="536.55908" viewBox="0 0 1040 536.55907" xmlns="http://www.w3.org/2000/svg" xmlns:svg="http://www.w3.org/2000/svg"><defs id="defs35218"><linearGradient x1="0" y1="0" x2="1" y2="0" gradientUnits="userSpaceOnUse" gradientTransform="matrix(-86.398712,149.64706,149.64706,86.398712,176.77656,665.68458)" spreadMethod="pad" id="linearGradient87104"><stop style="stop-opacity:1;stop-color:#400000" offset="0" id="stop87100" /><stop style="stop-opacity:1;stop-color:#c42b06" offset="1" id="stop87102" /></linearGradient><linearGradient x1="0" y1="0" x2="1" y2="0" gradientUnits="userSpaceOnUse" gradientTransform="matrix(4.0514205,-33.931878,-33.931878,-4.0514205,24.578338,825.52465)" spreadMethod="pad" id="linearGradient87130"><stop style="stop-opacity:1;stop-color:#c42b06" offset="0" id="stop87126" /><stop style="stop-opacity:1;stop-color:#860001" offset="1" id="stop87128" /></linearGradient><linearGradient x1="0" y1="0" x2="1" y2="0" gradientUnits="userSpaceOnUse" gradientTransform="matrix(-50.249436,5.281738,5.281738,50.249436,292.17698,813.25096)" spreadMethod="pad" id="linearGradient87160"><stop style="stop-opacity:1;stop-color:#fbc100" offset="0" id="stop87152" /><stop style="stop-opacity:1;stop-color:#eb6527" offset="0.194885" id="stop87154" /><stop style="stop-opacity:1;stop-color:#c42b06" offset="0.719086" id="stop87156" /><stop style="stop-opacity:1;stop-color:#c42b06" offset="1" id="stop87158" /></linearGradient><linearGradient x1="0" y1="0" x2="1" y2="0" gradientUnits="userSpaceOnUse" gradientTransform="matrix(-28.355354,0,0,28.355354,29.35133,738.15109)" spreadMethod="pad" id="linearGradient87186"><stop style="stop-opacity:1;stop-color:#620000" offset="0" id="stop87182" /><stop style="stop-opacity:1;stop-color:#990003" offset="1" id="stop87184" /></linearGradient><linearGradient x1="0" y1="0" x2="1" y2="0" gradientUnits="userSpaceOnUse" gradientTransform="matrix(33.298771,71.408462,71.408462,-33.298771,273.60202,733.91863)" spreadMethod="pad" id="linearGradient87218"><stop style="stop-opacity:1;stop-color:#400000" offset="0" id="stop87208" /><stop style="stop-opacity:1;stop-color:#620000" offset="0.345428" id="stop87210" /><stop style="stop-opacity:1;stop-color:#af1505" offset="0.711533" id="stop87212" /><stop style="stop-opacity:1;stop-color:#ec6527" offset="0.827789" id="stop87214" /><stop style="stop-opacity:1;stop-color:#fbc100" offset="1" id="stop87216" /></linearGradient><linearGradient x1="0" y1="0" x2="1" y2="0" gradientUnits="userSpaceOnUse" gradientTransform="matrix(0.37955713,30.77704,30.77704,-0.37955713,145.19869,811.60507)" spreadMethod="pad" id="linearGradient87244"><stop style="stop-opacity:1;stop-color:#990003" offset="0" id="stop87240" /><stop style="stop-opacity:1;stop-color:#d83e07" offset="1" id="stop87242" /></linearGradient><linearGradient x1="0" y1="0" x2="1" y2="0" gradientUnits="userSpaceOnUse" gradientTransform="matrix(0.25889474,20.971918,20.971918,-0.25889474,372.63792,821.08074)" spreadMethod="pad" id="linearGradient87418"><stop style="stop-opacity:1;stop-color:#c42b06" offset="0" id="stop87414" /><stop style="stop-opacity:1;stop-color:#af1505" offset="1" id="stop87416" /></linearGradient><linearGradient x1="0" y1="0" x2="1" y2="0" gradientUnits="userSpaceOnUse" gradientTransform="matrix(0.26003838,21.058216,21.058216,-0.26003838,368.71152,799.94273)" spreadMethod="pad" id="linearGradient87446"><stop style="stop-opacity:1;stop-color:#860001" offset="0" id="stop87440" /><stop style="stop-opacity:1;stop-color:#4f0000" offset="0.998657" id="stop87442" /><stop style="stop-opacity:1;stop-color:#4f0000" offset="1" id="stop87444" /></linearGradient><linearGradient x1="0" y1="0" x2="1" y2="0" gradientUnits="userSpaceOnUse" gradientTransform="matrix(0.25087427,20.324685,20.324685,-0.25087427,404.40374,757.98429)" spreadMethod="pad" id="linearGradient87474"><stop style="stop-opacity:1;stop-color:#af1505" offset="0" id="stop87468" /><stop style="stop-opacity:1;stop-color:#990003" offset="0.587372" id="stop87470" /><stop style="stop-opacity:1;stop-color:#860001" offset="1" id="stop87472" /></linearGradient><linearGradient x1="0" y1="0" x2="1" y2="0" gradientUnits="userSpaceOnUse" gradientTransform="matrix(0.25354693,20.541575,20.541575,-0.25354693,404.40374,736.83453)" spreadMethod="pad" id="linearGradient87502"><stop style="stop-opacity:1;stop-color:#860001" offset="0" id="stop87496" /><stop style="stop-opacity:1;stop-color:#4f0000" offset="0.998657" id="stop87498" /><stop style="stop-opacity:1;stop-color:#4f0000" offset="1" id="stop87500" /></linearGradient><linearGradient x1="0" y1="0" x2="1" y2="0" gradientUnits="userSpaceOnUse" gradientTransform="matrix(-0.26309391,21.342311,-21.342311,-0.26309391,376.89365,694.1824)" spreadMethod="pad" id="linearGradient87530"><stop style="stop-opacity:1;stop-color:#af1505" offset="0" id="stop87524" /><stop style="stop-opacity:1;stop-color:#990003" offset="0.587372" id="stop87526" /><stop style="stop-opacity:1;stop-color:#860001" offset="1" id="stop87528" /></linearGradient><linearGradient x1="0" y1="0" x2="1" y2="0" gradientUnits="userSpaceOnUse" gradientTransform="matrix(-0.26003838,21.092963,-21.092963,-0.26003838,380.78502,673.18529)" spreadMethod="pad" id="linearGradient87558"><stop style="stop-opacity:1;stop-color:#860001" offset="0" id="stop87552" /><stop style="stop-opacity:1;stop-color:#4f0000" offset="0.998657" id="stop87554" /><stop style="stop-opacity:1;stop-color:#4f0000" offset="1" id="stop87556" /></linearGradient><linearGradient x1="0" y1="0" x2="1" y2="0" gradientUnits="userSpaceOnUse" gradientTransform="matrix(-35.048024,12.698012,12.698012,35.048024,465.59579,814.94389)" spreadMethod="pad" id="linearGradient87600"><stop style="stop-opacity:1;stop-color:#fbc100" offset="0" id="stop87592" /><stop style="stop-opacity:1;stop-color:#ec6527" offset="0.352158" id="stop87594" /><stop style="stop-opacity:1;stop-color:#c42b06" offset="0.763443" id="stop87596" /><stop style="stop-opacity:1;stop-color:#c42b06" offset="1" id="stop87598" /></linearGradient><linearGradient x1="0" y1="0" x2="1" y2="0" gradientUnits="userSpaceOnUse" gradientTransform="matrix(-33.059734,11.977844,11.977844,33.059734,479.66852,746.05144)" spreadMethod="pad" id="linearGradient87628"><stop style="stop-opacity:1;stop-color:#ec6527" offset="0" id="stop87622" /><stop style="stop-opacity:1;stop-color:#c42b06" offset="0.763443" id="stop87624" /><stop style="stop-opacity:1;stop-color:#c42b06" offset="1" id="stop87626" /></linearGradient><linearGradient x1="0" y1="0" x2="1" y2="0" gradientUnits="userSpaceOnUse" gradientTransform="matrix(23.653262,50.724075,50.724075,-23.653262,444.44577,761.94598)" spreadMethod="pad" id="linearGradient87658"><stop style="stop-opacity:1;stop-color:#620000" offset="0" id="stop87650" /><stop style="stop-opacity:1;stop-color:#af1505" offset="0.711533" id="stop87652" /><stop style="stop-opacity:1;stop-color:#ec6527" offset="0.827789" id="stop87654" /><stop style="stop-opacity:1;stop-color:#fbc100" offset="1" id="stop87656" /></linearGradient><linearGradient x1="0" y1="0" x2="1" y2="0" gradientUnits="userSpaceOnUse" gradientTransform="matrix(-35.21451,-12.758344,12.758344,-35.21451,481.53763,700.20138)" spreadMethod="pad" id="linearGradient87690"><stop style="stop-opacity:1;stop-color:#af1505" offset="0" id="stop87684" /><stop style="stop-opacity:1;stop-color:#620000" offset="0.763443" id="stop87686" /><stop style="stop-opacity:1;stop-color:#620000" offset="1" id="stop87688" /></linearGradient><linearGradient x1="0" y1="0" x2="1" y2="0" gradientUnits="userSpaceOnUse" gradientTransform="matrix(16.673062,35.754063,35.754063,-16.673062,464.97267,713.7566)" spreadMethod="pad" id="linearGradient87726"><stop style="stop-opacity:1;stop-color:#620000" offset="0" id="stop87720" /><stop style="stop-opacity:1;stop-color:#af1505" offset="0.711533" id="stop87722" /><stop style="stop-opacity:1;stop-color:#e94f0a" offset="1" id="stop87724" /></linearGradient></defs><g id="g35220" transform="matrix(1.3333333,0,0,-1.3333333,-5.5557329e-4,1122.5201)"><g id="g117130" transform="matrix(1.6207685,0,0,1.6207685,-2.5866184e-4,-522.61893)"><path d="M 51.376465,811.48495 30.405628,790.48909 v -98.04742 l 115.239502,-63.86346 114.68896,63.86346 v 98.04742 l -20.97084,20.99586 z" style="fill:url(#linearGradient87104);stroke:none;stroke-width:25.0249" id="path87106" /><path d="M 4.1668e-4,803.10162 30.405628,790.48909 51.376465,811.48495 38.763933,841.89016 Z" style="fill:url(#linearGradient87130);stroke:none;stroke-width:25.0249" id="path87132" /><path d="m 239.36325,811.48495 20.97084,-20.99586 30.40521,12.61253 -38.73849,38.78854 z" style="fill:url(#linearGradient87160);stroke:none;stroke-width:25.0249" id="path87162" /><path d="M 4.1668e-4,673.19755 30.405628,692.44167 v 98.04742 L 4.1668e-4,803.10162 Z" style="fill:url(#linearGradient87186);stroke:none;stroke-width:25.0249" id="path87188" /><path d="m 260.33409,790.48909 v -98.04742 l 30.40521,-19.24412 v 0 129.90407 z" style="fill:url(#linearGradient87218);stroke:none;stroke-width:25.0249" id="path87220" /><path d="m 38.763933,841.89016 v -0.0501 L 51.376465,811.48495 H 239.36325 l 12.63756,30.40521 z" style="fill:url(#linearGradient87244);stroke:none;stroke-width:25.0249" id="path87246" /><path d="M 145.64513,593.60096 4.1668e-4,673.20506 30.405628,692.44918 145.64513,629.78691 Z" style="fill:#3a0000;fill-opacity:1;fill-rule:nonzero;stroke:none;stroke-width:25.0249" id="path87250" /><path d="m 145.64513,593.60096 145.09417,79.6041 -30.38019,19.24412 -114.71398,-62.66227 z" style="fill:#4f0000;fill-opacity:1;fill-rule:nonzero;stroke:none;stroke-width:25.0249" id="path87254" /><path d="m 260.3466,790.49159 -20.99586,20.99586 -44.29401,-44.31903 h -5.3303 v 44.31903 H 51.388977 L 30.393115,790.49159 V 757.43375 L 51.088679,736.73818 H 111.9992 l 3.00298,-2.97796 v -7.93288 l -3.00298,-3.00298 H 30.393115 v -30.38019 h 94.343745 l 20.64551,20.67054 v 33.35815 l -20.64551,20.69556 H 63.826335 l -3.053034,3.02801 v 7.8578 l 3.053034,3.05304 h 95.494885 v -88.6631 h 30.40521 v 44.29401 h 6.13109 l 44.29401,-44.29401 h 20.19507 v 22.92278 l -37.08685,37.01177 z" style="fill:white;fill-opacity:1;fill-rule:nonzero;stroke:none;stroke-width:25.0249" id="path87258" /><path d="m 51.37146,811.47494 1.176168,-2.80278 H 186.90613 l 2.85283,2.80278 z" style="fill:#68676c;fill-opacity:1;fill-rule:nonzero;stroke:none;stroke-width:25.0249" id="path87262" /><path d="m 52.22731,739.58351 -1.176169,-2.82781 h 60.960569 l 1.15115,2.82781 z" style="fill:white;fill-opacity:1;fill-rule:nonzero;stroke:none;stroke-width:25.0249" id="path87266" /><path d="m 63.826335,767.17342 -1.176169,-2.80278 h 60.910524 l 1.17617,2.80278 z" style="fill:#68676c;fill-opacity:1;fill-rule:nonzero;stroke:none;stroke-width:25.0249" id="path87270" /><path d="m 62.677694,783.88503 1.151143,-2.80279 h 95.519913 l 2.80278,2.80279 z" style="fill:white;fill-opacity:1;fill-rule:nonzero;stroke:none;stroke-width:25.0249" id="path87274" /><path d="m 30.403125,722.80434 2.77776,-2.77776 h 79.979465 l -1.15114,2.77776 z" style="fill:#98989c;fill-opacity:1;fill-rule:nonzero;stroke:none;stroke-width:25.0249" id="path87278" /><path d="m 33.173378,695.21442 -2.77776,-2.77776 h 94.343742 l -1.20119,2.77776 z" style="fill:white;fill-opacity:1;fill-rule:nonzero;stroke:none;stroke-width:25.0249" id="path87282" /><path d="m 162.13652,695.21442 -2.80279,-2.77776 h 30.40521 l -2.80278,2.77776 z" style="fill:white;fill-opacity:1;fill-rule:nonzero;stroke:none;stroke-width:25.0249" id="path87286" /><path d="m 186.93366,739.58351 2.80278,-2.82781 h 6.10607 l 1.15114,2.82781 z" style="fill:white;fill-opacity:1;fill-rule:nonzero;stroke:none;stroke-width:25.0249" id="path87290" /><path d="m 241.30268,695.21442 -1.15115,-2.77776 h 20.19507 l -2.75274,2.77776 z" style="fill:white;fill-opacity:1;fill-rule:nonzero;stroke:none;stroke-width:25.0249" id="path87294" /><path d="m 30.403125,790.48409 2.802785,-1.15115 19.344221,19.34422 -1.176169,2.80279 z" style="fill:#98989c;fill-opacity:1;fill-rule:nonzero;stroke:none;stroke-width:25.0249" id="path87298" /><path d="m 30.403125,757.42123 20.670539,-20.67053 1.126119,2.8278 -18.993873,19.0189 z" style="fill:#edeeef;fill-opacity:1;fill-rule:nonzero;stroke:none;stroke-width:25.0249" id="path87302" /><path d="m 112.0017,736.74569 3.00299,-2.97796 2.80278,1.15115 -4.65462,4.65462 z" style="fill:white;fill-opacity:1;fill-rule:nonzero;stroke:none;stroke-width:25.0249" id="path87306" /><path d="m 57.993039,768.99774 4.67965,-4.6296 1.151143,2.80278 -3.028008,3.02801 z" style="fill:#98989c;fill-opacity:1;fill-rule:nonzero;stroke:none;stroke-width:25.0249" id="path87310" /><path d="m 57.993039,779.2229 2.802785,-1.17617 3.028008,3.07806 -1.151143,2.75273 z" style="fill:#edeeef;fill-opacity:1;fill-rule:nonzero;stroke:none;stroke-width:25.0249" id="path87314" /><path d="m 123.53316,764.35813 19.04392,-19.0189 2.82781,1.12612 -20.67054,20.72059 z" style="fill:#68676c;fill-opacity:1;fill-rule:nonzero;stroke:none;stroke-width:25.0249" id="path87318" /><path d="m 30.403125,757.42123 2.77776,1.15115 v 30.75556 l -2.77776,1.15114 z" style="fill:#edeeef;fill-opacity:1;fill-rule:nonzero;stroke:none;stroke-width:25.0249" id="path87322" /><path d="m 57.993039,768.99774 2.802785,1.20119 v 7.85781 l -2.802785,1.17617 z" style="fill:#c3c5c8;fill-opacity:1;fill-rule:nonzero;stroke:none;stroke-width:25.0249" id="path87326" /><path d="m 114.99718,733.75021 v -7.93288 l 2.80278,-1.15114 v 10.26019 z" style="fill:#edeeef;fill-opacity:1;fill-rule:nonzero;stroke:none;stroke-width:25.0249" id="path87330" /><path d="m 142.58709,745.32672 v -31.05586 l 2.80279,-1.15114 v 33.35814 z" style="fill:#98989c;fill-opacity:1;fill-rule:nonzero;stroke:none;stroke-width:25.0249" id="path87334" /><path d="m 159.34374,781.09225 v -88.63807 l 2.80279,2.75274 v 88.68812 z" style="fill:#edeeef;fill-opacity:1;fill-rule:nonzero;stroke:none;stroke-width:25.0249" id="path87338" /><path d="m 186.93366,695.21442 2.80278,-2.77776 v 44.31904 l -2.80278,2.82781 z" style="fill:#c3c5c8;fill-opacity:1;fill-rule:nonzero;stroke:none;stroke-width:25.0249" id="path87342" /><path d="m 186.93366,808.68217 v -44.31904 l 2.80278,2.77776 v 44.34406 z" style="fill:#98989c;fill-opacity:1;fill-rule:nonzero;stroke:none;stroke-width:25.0249" id="path87346" /><path d="m 257.56383,714.22331 v -19.0189 l 2.77776,-2.75273 v 22.92278 z" style="fill:#c3c5c8;fill-opacity:1;fill-rule:nonzero;stroke:none;stroke-width:25.0249" id="path87350" /><path d="m 195.85002,736.74069 44.31903,-44.29402 1.15114,2.77776 -44.34406,44.36909 z" style="fill:#edeeef;fill-opacity:1;fill-rule:nonzero;stroke:none;stroke-width:25.0249" id="path87354" /><path d="m 219.31083,752.31866 3.95392,0.05 37.06183,38.11287 h -3.9289 z" style="fill:#edeeef;fill-opacity:1;fill-rule:nonzero;stroke:none;stroke-width:25.0249" id="path87358" /><path d="m 195.05923,767.17843 1.15114,-2.80279 43.14287,43.14287 v 3.95393 z" style="fill:#c3c5c8;fill-opacity:1;fill-rule:nonzero;stroke:none;stroke-width:25.0249" id="path87362" /><path d="m 219.31083,752.31866 38.23799,-38.11287 2.77776,1.15115 -37.06183,37.01177 z" style="fill:#68676c;fill-opacity:1;fill-rule:nonzero;stroke:none;stroke-width:25.0249" id="path87366" /><path d="m 239.36575,807.53353 17.04194,-17.04194 h 3.9289 l -20.97084,20.97084 z" style="fill:#68676c;fill-opacity:1;fill-rule:nonzero;stroke:none;stroke-width:25.0249" id="path87370" /><path d="m 30.403125,692.44417 2.77776,2.77776 v 24.79964 l -2.77776,2.77776 z" style="fill:#edeeef;fill-opacity:1;fill-rule:nonzero;stroke:none;stroke-width:25.0249" id="path87374" /><path d="m 112.0017,722.80434 1.15115,-2.77776 4.65462,4.67965 -2.80278,1.12612 z" style="fill:#c3c5c8;fill-opacity:1;fill-rule:nonzero;stroke:none;stroke-width:25.0249" id="path87378" /><path d="m 123.53316,695.21442 1.20119,-2.77776 20.67054,20.69557 -2.80278,1.12612 z" style="fill:#c3c5c8;fill-opacity:1;fill-rule:nonzero;stroke:none;stroke-width:25.0249" id="path87382" /><path d="m 189.72643,767.17342 -2.80278,-2.80278 h 9.28422 l -1.17617,2.80278 z" style="fill:#c3c5c8;fill-opacity:1;fill-rule:nonzero;stroke:none;stroke-width:25.0249" id="path87386" /><path d="m 311.84277,841.88015 v -42.14187 l 14.91482,21.07094 z" style="fill:#af1505;fill-opacity:1;fill-rule:nonzero;stroke:none;stroke-width:25.0249" id="path87390" /><path d="m 364.77036,736.4529 14.98989,20.94581 -14.98989,21.19606 z" style="fill:#af1505;fill-opacity:1;fill-rule:nonzero;stroke:none;stroke-width:25.0249" id="path87394" /><path d="m 311.83526,841.89016 v -0.025 l 14.91482,-21.07094 99.09846,0.05 7.83279,21.04591 z" style="fill:url(#linearGradient87418);stroke:none;stroke-width:25.0249" id="path87420" /><path d="m 425.6984,820.84425 -98.94832,-0.05 -14.91482,-21.04591 h 106.05538 l 7.9579,21.09596 z" style="fill:url(#linearGradient87446);stroke:none;stroke-width:25.0249" id="path87448" /><path d="m 364.78787,778.60228 v -0.025 l 14.9899,-21.14601 h 64.48908 v 0 l -21.17104,21.17104 z" style="fill:url(#linearGradient87474);stroke:none;stroke-width:25.0249" id="path87476" /><path d="m 379.77777,757.43124 -15.01492,-20.97083 h 0.2002 68.71828 l 10.58552,20.94581 h -0.025 l -1.52652,0.025 z" style="fill:url(#linearGradient87502);stroke:none;stroke-width:25.0249" id="path87504" /><path d="m 312.03546,715.28937 h -0.2002 l 16.26616,-21.09596 113.58786,-0.0751 -8.00795,21.17103 z" style="fill:url(#linearGradient87530);stroke:none;stroke-width:25.0249" id="path87532" /><path d="m 311.83526,673.17252 v 0 h 137.46158 0.15015 l -7.75771,20.94582 -113.58786,0.0751 z" style="fill:url(#linearGradient87558);stroke:none;stroke-width:25.0249" id="path87560" /><path d="m 425.84854,820.84675 18.41831,-18.36825 -21.17104,-7.88283 -5.18015,5.1301 z" style="fill:#450000;fill-opacity:1;fill-rule:nonzero;stroke:none;stroke-width:25.0249" id="path87564" /><path d="m 444.28186,757.40872 15.71562,-15.89079 -21.12099,-10.26019 -5.18015,5.20517 z" style="fill:#450000;fill-opacity:1;fill-rule:nonzero;stroke:none;stroke-width:25.0249" id="path87568" /><path d="m 423.08079,794.58316 v -15.99089 l 21.19606,-21.17104 v 45.04476 z" style="fill:#4f0000;fill-opacity:1;fill-rule:nonzero;stroke:none;stroke-width:25.0249" id="path87572" /><path d="m 425.84854,820.84425 18.41831,-18.36825 20.94581,7.83278 -31.50631,31.58138 z" style="fill:url(#linearGradient87600);stroke:none;stroke-width:25.0249" id="path87602" /><path d="m 444.26685,757.43124 15.74064,-15.91581 21.24611,5.50547 -16.04094,15.81571 z" style="fill:url(#linearGradient87628);stroke:none;stroke-width:25.0249" id="path87630" /><path d="m 444.26685,802.476 v -45.04476 l 20.94581,5.40537 v 47.44715 0.025 z" style="fill:url(#linearGradient87658);stroke:none;stroke-width:25.0249" id="path87660" /><path d="m 311.84277,673.16502 16.26616,21.04591 -16.26616,21.07093 z" style="fill:#990003;fill-opacity:1;fill-rule:nonzero;stroke:none;stroke-width:25.0249" id="path87664" /><path d="m 441.68928,694.11834 7.75771,-20.94582 31.80661,31.50631 -21.24611,8.00796 z" style="fill:url(#linearGradient87690);stroke:none;stroke-width:25.0249" id="path87692" /><path d="m 441.68428,694.10582 18.3182,18.59348 -21.12099,7.9579 -5.18014,-5.35532 z" style="fill:#860001;fill-opacity:1;fill-rule:nonzero;stroke:none;stroke-width:25.0249" id="path87696" /><path d="m 438.86898,731.27275 v -10.61054 l 21.14601,-7.95791 v 28.80362 z" style="fill:#4f0000;fill-opacity:1;fill-rule:nonzero;stroke:none;stroke-width:25.0249" id="path87700" /><path d="m 481.22857,747.0209 -21.22108,-5.50547 v -28.82864 l 21.22108,-8.00796 0.025,0.025 v 0 42.31705 z" style="fill:url(#linearGradient87726);stroke:none;stroke-width:25.0249" id="path87728" /></g></g></svg>
