<?xml version="1.0" encoding="UTF-8" standalone="no"?>
<!-- Created with Inkscape (http://www.inkscape.org/) -->

<svg version="1.1" id="svg35214" xml:space="preserve" width="1040" height="688.276" viewBox="0 0 1040 688.27599" xmlns="http://www.w3.org/2000/svg" xmlns:svg="http://www.w3.org/2000/svg"><defs id="defs35218"><linearGradient x1="0" y1="0" x2="1" y2="0" gradientUnits="userSpaceOnUse" gradientTransform="matrix(-100.06411,173.31619,173.31619,100.06411,204.463,637.73535)" spreadMethod="pad" id="linearGradient84592"><stop style="stop-opacity:1;stop-color:#400000" offset="0" id="stop84588" /><stop style="stop-opacity:1;stop-color:#c42b06" offset="1" id="stop84590" /></linearGradient><linearGradient x1="0" y1="0" x2="1" y2="0" gradientUnits="userSpaceOnUse" gradientTransform="matrix(4.6907667,-39.285676,-39.285676,-4.6907667,28.409674,822.90595)" spreadMethod="pad" id="linearGradient84618"><stop style="stop-opacity:1;stop-color:#c42b06" offset="0" id="stop84614" /><stop style="stop-opacity:1;stop-color:#860001" offset="1" id="stop84616" /></linearGradient><linearGradient x1="0" y1="0" x2="1" y2="0" gradientUnits="userSpaceOnUse" gradientTransform="matrix(-58.131837,6.1104187,6.1104187,58.131837,338.2245,808.80829)" spreadMethod="pad" id="linearGradient84648"><stop style="stop-opacity:1;stop-color:#fbc100" offset="0" id="stop84640" /><stop style="stop-opacity:1;stop-color:#eb6527" offset="0.194885" id="stop84642" /><stop style="stop-opacity:1;stop-color:#c42b06" offset="0.719086" id="stop84644" /><stop style="stop-opacity:1;stop-color:#c42b06" offset="1" id="stop84646" /></linearGradient><linearGradient x1="0" y1="0" x2="1" y2="0" gradientUnits="userSpaceOnUse" gradientTransform="matrix(-32.820345,0,0,32.820345,33.961551,721.80224)" spreadMethod="pad" id="linearGradient84674"><stop style="stop-opacity:1;stop-color:#620000" offset="0" id="stop84670" /><stop style="stop-opacity:1;stop-color:#990003" offset="1" id="stop84672" /></linearGradient><linearGradient x1="0" y1="0" x2="1" y2="0" gradientUnits="userSpaceOnUse" gradientTransform="matrix(38.531653,82.630526,82.630526,-38.531653,316.58849,716.93106)" spreadMethod="pad" id="linearGradient84706"><stop style="stop-opacity:1;stop-color:#400000" offset="0" id="stop84696" /><stop style="stop-opacity:1;stop-color:#620000" offset="0.345428" id="stop84698" /><stop style="stop-opacity:1;stop-color:#af1505" offset="0.711533" id="stop84700" /><stop style="stop-opacity:1;stop-color:#ec6527" offset="0.827789" id="stop84702" /><stop style="stop-opacity:1;stop-color:#fbc100" offset="1" id="stop84704" /></linearGradient><linearGradient x1="0" y1="0" x2="1" y2="0" gradientUnits="userSpaceOnUse" gradientTransform="matrix(0.43933023,35.622961,35.622961,-0.43933023,168.0495,806.79459)" spreadMethod="pad" id="linearGradient84732"><stop style="stop-opacity:1;stop-color:#990003" offset="0" id="stop84728" /><stop style="stop-opacity:1;stop-color:#d83e07" offset="1" id="stop84730" /></linearGradient><linearGradient x1="0" y1="0" x2="1" y2="0" gradientUnits="userSpaceOnUse" gradientTransform="matrix(0.28552178,23.062242,23.062242,-0.28552178,379.23748,818.46955)" spreadMethod="pad" id="linearGradient84902"><stop style="stop-opacity:1;stop-color:#c42b06" offset="0" id="stop84898" /><stop style="stop-opacity:1;stop-color:#af1505" offset="1" id="stop84900" /></linearGradient><linearGradient x1="0" y1="0" x2="1" y2="0" gradientUnits="userSpaceOnUse" gradientTransform="matrix(0.28596206,23.20279,23.20279,-0.28596206,374.638,793.89496)" spreadMethod="pad" id="linearGradient84930"><stop style="stop-opacity:1;stop-color:#860001" offset="0" id="stop84924" /><stop style="stop-opacity:1;stop-color:#4f0000" offset="0.998657" id="stop84926" /><stop style="stop-opacity:1;stop-color:#4f0000" offset="1" id="stop84928" /></linearGradient><linearGradient x1="0" y1="0" x2="1" y2="0" gradientUnits="userSpaceOnUse" gradientTransform="matrix(44.097546,140.86888,140.86888,-44.097546,378.63905,660.43296)" spreadMethod="pad" id="linearGradient84962"><stop style="stop-opacity:1;stop-color:#620000" offset="0" id="stop84956" /><stop style="stop-opacity:1;stop-color:#620000" offset="0.262924" id="stop84958" /><stop style="stop-opacity:1;stop-color:#4f0000" offset="1" id="stop84960" /></linearGradient><linearGradient x1="0" y1="0" x2="1" y2="0" gradientUnits="userSpaceOnUse" gradientTransform="matrix(-40.585549,14.703897,14.703897,40.585549,434.57898,810.60446)" spreadMethod="pad" id="linearGradient84992"><stop style="stop-opacity:1;stop-color:#fbc100" offset="0" id="stop84984" /><stop style="stop-opacity:1;stop-color:#ec6527" offset="0.352158" id="stop84986" /><stop style="stop-opacity:1;stop-color:#c42b06" offset="0.763443" id="stop84988" /><stop style="stop-opacity:1;stop-color:#c42b06" offset="1" id="stop84990" /></linearGradient><linearGradient x1="0" y1="0" x2="1" y2="0" gradientUnits="userSpaceOnUse" gradientTransform="matrix(59.87502,128.40186,128.40186,-59.87502,398.45137,675.40104)" spreadMethod="pad" id="linearGradient85022"><stop style="stop-opacity:1;stop-color:#620000" offset="0" id="stop85014" /><stop style="stop-opacity:1;stop-color:#af1505" offset="0.711533" id="stop85016" /><stop style="stop-opacity:1;stop-color:#ec6527" offset="0.827789" id="stop85018" /><stop style="stop-opacity:1;stop-color:#fbc100" offset="1" id="stop85020" /></linearGradient></defs><g id="g35220" transform="matrix(1.3333333,0,0,-1.3333333,-9.8360027e-6,1122.5201)"><g id="g114289" transform="matrix(1.7962618,0,0,1.7962618,-5.8740256e-6,-670.365)"><path d="M 59.475505,806.69379 35.17319,782.42044 V 668.9324 l 133.41652,-73.94972 132.75031,73.94972 v 113.48804 l -24.30232,24.27335 z" style="fill:url(#linearGradient84592);stroke:none;stroke-width:28.9658" id="path84594" /><path d="M 0.00869712,796.99024 35.17319,782.42044 59.475505,806.69379 44.876737,841.88725 Z" style="fill:url(#linearGradient84618);stroke:none;stroke-width:28.9658" id="path84620" /><path d="m 277.0377,806.69379 24.30232,-24.27335 35.16449,14.5698 -44.83907,44.89701 z" style="fill:url(#linearGradient84648);stroke:none;stroke-width:28.9658" id="path84650" /><path d="M 0.00869712,646.62872 35.17319,668.9324 v 113.48804 l -35.16449288,14.5698 z" style="fill:url(#linearGradient84674);stroke:none;stroke-width:28.9658" id="path84676" /><path d="M 301.34002,782.42044 V 668.9324 l 35.13553,-22.30368 0.029,0.029 v 0 150.33255 z" style="fill:url(#linearGradient84706);stroke:none;stroke-width:28.9658" id="path84708" /><path d="m 44.876737,841.88725 v -0.029 L 59.475505,806.69379 H 277.0377 l 14.62774,35.19346 z" style="fill:url(#linearGradient84732);stroke:none;stroke-width:28.9658" id="path84734" /><path d="M 168.58102,554.51165 7.3770025e-6,646.6519 35.164501,668.9266 168.58102,596.42518 Z" style="fill:#3a0000;fill-opacity:1;fill-rule:nonzero;stroke:none;stroke-width:28.9658" id="path84738" /><path d="m 168.58102,554.51165 167.9148,92.14025 -35.16449,22.2747 -132.75031,-72.50142 z" style="fill:#4f0000;fill-opacity:1;fill-rule:nonzero;stroke:none;stroke-width:28.9658" id="path84742" /><path d="m 301.34002,782.41754 -24.30232,24.27335 -51.26948,-51.26948 h -6.16972 v 51.26948 H 59.475505 L 35.17319,782.41754 V 744.15371 L 59.127915,720.19898 H 129.6307 l 3.47589,-3.44693 v -9.18216 l -3.47589,-3.4759 H 35.17319 V 668.9295 h 109.2011 l 23.8968,23.92576 v 38.61142 l -23.8968,23.95473 H 73.871513 l -3.533829,3.50486 v 9.09527 l 3.533829,3.50486 H 184.37608 V 668.9295 h 35.22242 v 51.26948 h 7.09663 l 51.26948,-51.26948 h 23.37541 v 26.53268 l -42.92733,42.84043 z" style="fill:white;fill-opacity:1;fill-rule:nonzero;stroke:none;stroke-width:28.9658" id="path84746" /><path d="m 59.481298,806.69669 1.361393,-3.21521 H 216.33116 l 3.27314,3.21521 z" style="fill:#68676c;fill-opacity:1;fill-rule:nonzero;stroke:none;stroke-width:28.9658" id="path84750" /><path d="m 60.44586,723.48371 -1.332428,-3.27314 h 70.502778 l 1.3614,3.27314 z" style="fill:white;fill-opacity:1;fill-rule:nonzero;stroke:none;stroke-width:28.9658" id="path84754" /><path d="m 73.871513,755.41851 -1.332428,-3.24417 H 143.0129 l 1.36139,3.24417 z" style="fill:#68676c;fill-opacity:1;fill-rule:nonzero;stroke:none;stroke-width:28.9658" id="path84758" /><path d="m 72.515913,774.76188 1.361393,-3.24417 H 184.38187 l 3.3021,3.24417 z" style="fill:white;fill-opacity:1;fill-rule:nonzero;stroke:none;stroke-width:28.9658" id="path84762" /><path d="m 35.184777,704.0882 3.244171,-3.2152 h 92.574732 l -1.39036,3.2152 z" style="fill:#98989c;fill-opacity:1;fill-rule:nonzero;stroke:none;stroke-width:28.9658" id="path84766" /><path d="m 38.417361,672.15339 -3.244171,-3.24417 h 109.2011 l -1.36139,3.24417 z" style="fill:white;fill-opacity:1;fill-rule:nonzero;stroke:none;stroke-width:28.9658" id="path84770" /><path d="m 187.6637,672.15339 -3.27314,-3.24417 h 35.22243 l -3.24418,3.24417 z" style="fill:white;fill-opacity:1;fill-rule:nonzero;stroke:none;stroke-width:28.9658" id="path84774" /><path d="m 216.33985,723.48371 3.24417,-3.27314 h 7.09662 l 1.33243,3.27314 z" style="fill:white;fill-opacity:1;fill-rule:nonzero;stroke:none;stroke-width:28.9658" id="path84778" /><path d="m 279.27097,672.15339 -1.33243,-3.24417 h 23.40438 l -3.21521,3.24417 z" style="fill:white;fill-opacity:1;fill-rule:nonzero;stroke:none;stroke-width:28.9658" id="path84782" /><path d="m 35.184777,782.42623 3.244171,-1.36139 22.419536,22.41954 -1.361393,3.2152 z" style="fill:#98989c;fill-opacity:1;fill-rule:nonzero;stroke:none;stroke-width:28.9658" id="path84786" /><path d="m 35.184777,744.1566 23.925759,-23.95472 1.332427,3.27314 -22.014015,22.01401 z" style="fill:#edeeef;fill-opacity:1;fill-rule:nonzero;stroke:none;stroke-width:28.9658" id="path84790" /><path d="m 129.60752,720.19898 3.50487,-3.44693 3.2152,1.33243 -5.35867,5.38764 z" style="fill:white;fill-opacity:1;fill-rule:nonzero;stroke:none;stroke-width:28.9658" id="path84794" /><path d="m 67.119582,757.53012 5.416607,-5.35868 1.332427,3.24418 -3.504863,3.50486 z" style="fill:#98989c;fill-opacity:1;fill-rule:nonzero;stroke:none;stroke-width:28.9658" id="path84798" /><path d="m 67.119582,769.36555 3.244171,-1.36139 3.504863,3.56279 -1.332427,3.18624 z" style="fill:#edeeef;fill-opacity:1;fill-rule:nonzero;stroke:none;stroke-width:28.9658" id="path84802" /><path d="m 143.00711,752.15986 22.01401,-22.01402 3.27314,1.30346 -23.92576,23.95473 z" style="fill:#68676c;fill-opacity:1;fill-rule:nonzero;stroke:none;stroke-width:28.9658" id="path84806" /><path d="m 35.184777,744.1566 3.244171,1.33243 v 35.59898 l -3.244171,1.33243 z" style="fill:#edeeef;fill-opacity:1;fill-rule:nonzero;stroke:none;stroke-width:28.9658" id="path84810" /><path d="m 67.119582,757.53012 3.244171,1.39036 v 9.09526 l -3.244171,1.3614 z" style="fill:#c3c5c8;fill-opacity:1;fill-rule:nonzero;stroke:none;stroke-width:28.9658" id="path84814" /><path d="m 133.12687,716.73178 v -9.18217 l 3.21521,-1.33242 v 11.84701 z" style="fill:#edeeef;fill-opacity:1;fill-rule:nonzero;stroke:none;stroke-width:28.9658" id="path84818" /><path d="m 165.06168,730.13136 v -35.94657 l 3.24417,-1.33243 v 38.61143 z" style="fill:#98989c;fill-opacity:1;fill-rule:nonzero;stroke:none;stroke-width:28.9658" id="path84822" /><path d="M 184.37897,771.5293 V 668.9324 l 3.30211,3.18624 v 102.65483 z" style="fill:#edeeef;fill-opacity:1;fill-rule:nonzero;stroke:none;stroke-width:28.9658" id="path84826" /><path d="m 216.33985,672.15339 3.24417,-3.24417 v 51.29845 l -3.24417,3.24417 z" style="fill:#c3c5c8;fill-opacity:1;fill-rule:nonzero;stroke:none;stroke-width:28.9658" id="path84830" /><path d="m 216.33985,803.49017 v -51.32742 l 3.24417,3.24418 v 51.29845 z" style="fill:#98989c;fill-opacity:1;fill-rule:nonzero;stroke:none;stroke-width:28.9658" id="path84834" /><path d="m 298.14509,694.12975 v -22.01401 l 3.2152,-3.18624 v 26.53268 z" style="fill:#c3c5c8;fill-opacity:1;fill-rule:nonzero;stroke:none;stroke-width:28.9658" id="path84838" /><path d="m 226.68354,720.19609 51.26948,-51.26949 1.33243,3.21521 -51.26948,51.35638 z" style="fill:#edeeef;fill-opacity:1;fill-rule:nonzero;stroke:none;stroke-width:28.9658" id="path84842" /><path d="m 253.83899,738.2273 4.57659,0.0579 42.92734,44.14389 -4.5766,-0.029 z" style="fill:#edeeef;fill-opacity:1;fill-rule:nonzero;stroke:none;stroke-width:28.9658" id="path84846" /><path d="m 225.77112,755.41851 1.36139,-3.27313 49.90809,49.99498 v 4.54764 z" style="fill:#c3c5c8;fill-opacity:1;fill-rule:nonzero;stroke:none;stroke-width:28.9658" id="path84850" /><path d="m 253.83899,738.2273 44.28872,-44.11493 3.21521,1.33243 -42.92734,42.84044 z" style="fill:#68676c;fill-opacity:1;fill-rule:nonzero;stroke:none;stroke-width:28.9658" id="path84854" /><path d="m 277.05508,802.13457 19.69675,-19.72572 4.5766,0.029 -24.27335,24.27335 z" style="fill:#68676c;fill-opacity:1;fill-rule:nonzero;stroke:none;stroke-width:28.9658" id="path84858" /><path d="m 35.184777,668.92081 3.244171,3.24417 v 28.70512 l -3.244171,3.18624 z" style="fill:#edeeef;fill-opacity:1;fill-rule:nonzero;stroke:none;stroke-width:28.9658" id="path84862" /><path d="m 129.60752,704.0882 1.3614,-3.2152 5.35867,5.4166 -3.2152,1.2745 z" style="fill:#c3c5c8;fill-opacity:1;fill-rule:nonzero;stroke:none;stroke-width:28.9658" id="path84866" /><path d="m 143.03318,672.15339 1.33242,-3.24417 23.95473,23.98369 -3.27314,1.2745 z" style="fill:#c3c5c8;fill-opacity:1;fill-rule:nonzero;stroke:none;stroke-width:28.9658" id="path84870" /><path d="m 219.5985,755.41851 -3.24417,-3.24417 h 10.74632 l -1.33243,3.24417 z" style="fill:#c3c5c8;fill-opacity:1;fill-rule:nonzero;stroke:none;stroke-width:28.9658" id="path84874" /><path d="m 360.998,841.89014 v -48.77842 l 17.32156,24.38921 z" style="fill:#af1505;fill-opacity:1;fill-rule:nonzero;stroke:none;stroke-width:28.9658" id="path84878" /><path d="m 361.00959,841.88725 17.29259,-24.38921 10.31182,0.029 9.1532,24.36025 z" style="fill:url(#linearGradient84902);stroke:none;stroke-width:28.9658" id="path84904" /><path d="m 388.46918,817.527 -10.167,-0.029 -17.29259,-24.38922 h 18.48018 L 388.614,817.527 Z" style="fill:url(#linearGradient84930);stroke:none;stroke-width:28.9658" id="path84932" /><path d="m 388.60531,817.53859 21.23194,-21.46367 -24.36024,-9.18216 -6.02489,6.22765 z" style="fill:#620000;fill-opacity:1;fill-rule:nonzero;stroke:none;stroke-width:28.9658" id="path84936" /><path d="m 385.4857,786.91014 v -140.31038 0 l 24.33128,18.82777 v 130.63581 0 z" style="fill:url(#linearGradient84962);stroke:none;stroke-width:28.9658" id="path84964" /><path d="m 388.614,817.527 21.20298,-21.46366 24.41817,9.26906 -36.46795,36.55485 z" style="fill:url(#linearGradient84992);stroke:none;stroke-width:28.9658" id="path84994" /><path d="M 409.81698,796.06334 V 665.42753 l 24.41817,-18.82777 v 0 158.73264 h -0.029 z" style="fill:url(#linearGradient85022);stroke:none;stroke-width:28.9658" id="path85024" /><path d="m 385.47701,646.60555 h 48.74946 l -24.38922,18.82778 z" style="fill:#450000;fill-opacity:1;fill-rule:nonzero;stroke:none;stroke-width:28.9658" id="path85028" /></g></g></svg>
